<svg xmlns="http://www.w3.org/2000/svg" width="1280" height="380" viewBox="0 0 1280 380" role="img" aria-label="Michał Bucki, full-stack web developer, Kraków">
<style>
  .bar { transform-box: fill-box; transform-origin: left center; animation: grow 7s ease-in-out infinite; }
  @keyframes grow { 0% { transform: scaleX(0); } 12% { transform: scaleX(1); } 88% { transform: scaleX(1); } 100% { transform: scaleX(0); } }
  .cursor { animation: blink 1.1s steps(1) infinite; }
  @keyframes blink { 50% { opacity: 0; } }
  .pulse { transform-box: fill-box; transform-origin: center; animation: pulse 2.2s ease-out infinite; }
  @keyframes pulse { 0% { transform: scale(1); opacity: .6; } 100% { transform: scale(2.6); opacity: 0; } }
  .float { animation: float 6s ease-in-out infinite; }
  @keyframes float { 50% { transform: translateY(-6px); } }
  @media (prefers-reduced-motion: reduce) { .bar, .cursor, .pulse, .float { animation: none; } }
</style>
<defs>
  <linearGradient id="accent" x1="0" y1="0" x2="1" y2="0">
    <stop offset="0" stop-color="#2dd4bf"/><stop offset=".55" stop-color="#38bdf8"/><stop offset="1" stop-color="#818cf8"/>
  </linearGradient>
  <pattern id="grid" width="32" height="32" patternUnits="userSpaceOnUse">
    <path d="M32 0H0V32" fill="none" stroke="#1b2433" stroke-width="1"/>
  </pattern>
  <radialGradient id="glow" cx="0.78" cy="0.35" r="0.55">
    <stop offset="0" stop-color="#38bdf8" stop-opacity=".18"/>
    <stop offset="1" stop-color="#38bdf8" stop-opacity="0"/></radialGradient>
  <linearGradient id="fade" x1="0" y1="0" x2="1" y2="0">
    <stop offset="0" stop-color="#0b1220" stop-opacity="1"/><stop offset=".45" stop-color="#0b1220" stop-opacity=".2"/>
    <stop offset="1" stop-color="#0b1220" stop-opacity="0"/></linearGradient>
  <clipPath id="frame"><rect width="1280" height="380" rx="18"/></clipPath>
</defs>
<g clip-path="url(#frame)">
  <rect width="1280" height="380" fill="#0b1220"/>
  <rect width="1280" height="380" fill="url(#grid)"/>
  <rect width="1280" height="380" fill="url(#fade)"/>
  <rect width="1280" height="380" fill="url(#glow)"/>
  <rect y="376" width="1280" height="4" fill="url(#accent)"/>
</g>
<rect x=".5" y=".5" width="1279" height="379" rx="17.5" fill="none" stroke="#1f2a3a"/>

<!-- left: identity -->
<text x="72" y="96" font-family="ui-monospace, SFMono-Regular, 'SF Mono', Menlo, Consolas, 'Liberation Mono', monospace" font-size="16" fill="#8b98a9">
  <tspan fill="#2dd4bf">~</tspan>/<tspan fill="#e6edf3">vex864</tspan> <tspan fill="#818cf8">$</tspan> whoami<tspan class="cursor" fill="#2dd4bf"> ▍</tspan>
</text>
<text x="70" y="168" font-family="'Segoe UI', -apple-system, BlinkMacSystemFont, 'Helvetica Neue', Arial, sans-serif" font-size="64" font-weight="700" fill="#e6edf3" letter-spacing="-1.5">Michał Bucki</text>
<text x="72" y="214" font-family="'Segoe UI', -apple-system, BlinkMacSystemFont, 'Helvetica Neue', Arial, sans-serif" font-size="30" font-weight="600" fill="url(#accent)">Full-stack web developer</text>
<text x="72" y="250" font-family="'Segoe UI', -apple-system, BlinkMacSystemFont, 'Helvetica Neue', Arial, sans-serif" font-size="18" fill="#8b98a9">Privacy-first websites &amp; web apps for healthcare and small business</text>

<g transform="translate(72 284)">
  <rect width="156" height="38" rx="19" fill="#161f2e" stroke="#243044"/>
  <path transform="translate(16 10)" d="M8 0C4.7 0 2 2.6 2 5.9 2 10.3 8 18 8 18s6-7.7 6-12.1C14 2.6 11.3 0 8 0Zm0 8.2a2.3 2.3 0 1 1 0-4.6 2.3 2.3 0 0 1 0 4.6Z" fill="#2dd4bf"/>
  <text x="40" y="24.5" font-family="'Segoe UI', -apple-system, BlinkMacSystemFont, 'Helvetica Neue', Arial, sans-serif" font-size="15" fill="#e6edf3">Kraków, Poland</text>
  <g transform="translate(168 0)">
    <rect width="235" height="38" rx="19" fill="#161f2e" stroke="#243044"/>
    <circle class="pulse" cx="24" cy="19" r="5" fill="#3fb950"/>
    <circle cx="24" cy="19" r="5" fill="#3fb950"/>
    <text x="40" y="24.5" font-family="'Segoe UI', -apple-system, BlinkMacSystemFont, 'Helvetica Neue', Arial, sans-serif" font-size="15" fill="#e6edf3">Open to freelance projects</text>
  </g>
</g>

<!-- right: editor window -->
<g class="float">
  <rect x="790" y="72" width="420" height="236" rx="14" fill="#111827" stroke="#1f2a3a"/>
  <path d="M790 86a14 14 0 0 1 14-14h392a14 14 0 0 1 14 14v22H790Z" fill="#161f2e"/>
  <line x1="790" y1="108" x2="1210" y2="108" stroke="#1f2a3a"/>
  <circle cx="810" cy="90" r="5.5" fill="#ff5f57"/>
  <circle cx="828" cy="90" r="5.5" fill="#febc2e"/>
  <circle cx="846" cy="90" r="5.5" fill="#28c840"/>
  <text x="1000.0" y="95" text-anchor="middle" font-family="ui-monospace, SFMono-Regular, 'SF Mono', Menlo, Consolas, 'Liberation Mono', monospace" font-size="12" fill="#8b98a9">app/page.tsx</text>
  <text x="810" y="135" font-family="ui-monospace, SFMono-Regular, 'SF Mono', Menlo, Consolas, 'Liberation Mono', monospace" font-size="9" fill="#4b5869">1</text><text x="810" y="151" font-family="ui-monospace, SFMono-Regular, 'SF Mono', Menlo, Consolas, 'Liberation Mono', monospace" font-size="9" fill="#4b5869">2</text><text x="810" y="167" font-family="ui-monospace, SFMono-Regular, 'SF Mono', Menlo, Consolas, 'Liberation Mono', monospace" font-size="9" fill="#4b5869">3</text><text x="810" y="183" font-family="ui-monospace, SFMono-Regular, 'SF Mono', Menlo, Consolas, 'Liberation Mono', monospace" font-size="9" fill="#4b5869">4</text><text x="810" y="199" font-family="ui-monospace, SFMono-Regular, 'SF Mono', Menlo, Consolas, 'Liberation Mono', monospace" font-size="9" fill="#4b5869">5</text><text x="810" y="215" font-family="ui-monospace, SFMono-Regular, 'SF Mono', Menlo, Consolas, 'Liberation Mono', monospace" font-size="9" fill="#4b5869">6</text><text x="810" y="231" font-family="ui-monospace, SFMono-Regular, 'SF Mono', Menlo, Consolas, 'Liberation Mono', monospace" font-size="9" fill="#4b5869">7</text><text x="810" y="247" font-family="ui-monospace, SFMono-Regular, 'SF Mono', Menlo, Consolas, 'Liberation Mono', monospace" font-size="9" fill="#4b5869">8</text><text x="810" y="263" font-family="ui-monospace, SFMono-Regular, 'SF Mono', Menlo, Consolas, 'Liberation Mono', monospace" font-size="9" fill="#4b5869">9</text><text x="810" y="279" font-family="ui-monospace, SFMono-Regular, 'SF Mono', Menlo, Consolas, 'Liberation Mono', monospace" font-size="9" fill="#4b5869">10</text>
  <rect class="bar" style="animation-delay:0.00s" x="834" y="128" width="70" height="7" rx="3.5" fill="#818cf8" opacity=".9"/><rect class="bar" style="animation-delay:0.08s" x="914" y="128" width="110" height="7" rx="3.5" fill="#e6edf3" opacity=".9"/><rect class="bar" style="animation-delay:0.16s" x="1034" y="128" width="60" height="7" rx="3.5" fill="#2dd4bf" opacity=".9"/><rect class="bar" style="animation-delay:0.22s" x="858" y="144" width="90" height="7" rx="3.5" fill="#8b98a9" opacity=".55"/><rect class="bar" style="animation-delay:0.30s" x="958" y="144" width="140" height="7" rx="3.5" fill="#38bdf8" opacity=".9"/><rect class="bar" style="animation-delay:0.44s" x="858" y="160" width="60" height="7" rx="3.5" fill="#818cf8" opacity=".9"/><rect class="bar" style="animation-delay:0.52s" x="928" y="160" width="80" height="7" rx="3.5" fill="#e6edf3" opacity=".9"/><rect class="bar" style="animation-delay:0.60s" x="1018" y="160" width="120" height="7" rx="3.5" fill="#2dd4bf" opacity=".9"/><rect class="bar" style="animation-delay:0.66s" x="882" y="176" width="150" height="7" rx="3.5" fill="#8b98a9" opacity=".55"/><rect class="bar" style="animation-delay:0.88s" x="882" y="192" width="70" height="7" rx="3.5" fill="#38bdf8" opacity=".9"/><rect class="bar" style="animation-delay:0.96s" x="962" y="192" width="110" height="7" rx="3.5" fill="#e6edf3" opacity=".9"/><rect class="bar" style="animation-delay:1.10s" x="858" y="208" width="40" height="7" rx="3.5" fill="#818cf8" opacity=".9"/><rect class="bar" style="animation-delay:1.32s" x="834" y="224" width="20" height="7" rx="3.5" fill="#8b98a9" opacity=".55"/><rect class="bar" style="animation-delay:1.76s" x="834" y="256" width="90" height="7" rx="3.5" fill="#818cf8" opacity=".9"/><rect class="bar" style="animation-delay:1.84s" x="934" y="256" width="130" height="7" rx="3.5" fill="#2dd4bf" opacity=".9"/><rect class="bar" style="animation-delay:1.98s" x="858" y="272" width="170" height="7" rx="3.5" fill="#8b98a9" opacity=".55"/>
</g>
</svg>
